<svg width="120" height="56" viewBox="0 0 120 56" xmlns="http://www.w3.org/2000/svg"><title>embed-logo</title><g fill="none" fill-rule="evenodd"><path d="M0 2h60M60 54h60" stroke="#F6A623" stroke-width="3"/><path d="M16.642 19.356H5.117v6.174h10.612c.78 0 1.363.175 1.748.523.385.35.577.81.577 1.381 0 .572-.19 1.038-.568 1.398-.38.36-.965.54-1.757.54H5.117v7.152h11.92c.805 0 1.41.186 1.818.557.408.372.612.866.612 1.484 0 .594-.204 1.077-.612 1.449-.407.371-1.013.557-1.817.557H3.135c-1.114 0-1.915-.246-2.403-.737C.244 39.342 0 38.547 0 37.45v-18.9c0-.732.11-1.329.327-1.792.219-.463.56-.8 1.025-1.012.465-.211 1.06-.317 1.783-.317h13.507c.815 0 1.42.18 1.817.54.396.36.594.832.594 1.415 0 .594-.198 1.072-.594 1.432-.396.36-1.002.54-1.817.54zm22.94 12.469v6.225c0 .983-.223 1.72-.671 2.213-.448.491-1.04.737-1.775.737-.712 0-1.289-.246-1.73-.737-.443-.492-.664-1.23-.664-2.213v-7.46c0-1.178-.04-2.093-.12-2.744-.081-.652-.3-1.187-.655-1.604-.356-.417-.92-.626-1.689-.626-1.539 0-2.552.526-3.04 1.578s-.732 2.561-.732 4.528v6.328c0 .972-.222 1.707-.664 2.204-.442.497-1.025.746-1.748.746-.712 0-1.295-.249-1.749-.746-.454-.497-.68-1.232-.68-2.204V24.656c0-.88.203-1.55.611-2.007.408-.457.945-.686 1.611-.686.643 0 1.18.214 1.61.643.431.429.647 1.02.647 1.775v.446c.815-.972 1.688-1.686 2.618-2.144.93-.457 1.964-.686 3.101-.686 1.183 0 2.2.235 3.05.704.85.468 1.55 1.177 2.101 2.126.793-.96 1.643-1.672 2.55-2.135.907-.463 1.912-.695 3.015-.695 1.286 0 2.394.252 3.325.755a4.811 4.811 0 0 1 2.084 2.16c.402.847.603 2.179.603 3.997v9.141c0 .983-.224 1.72-.672 2.213-.448.491-1.04.737-1.774.737-.712 0-1.295-.249-1.749-.746-.454-.497-.68-1.232-.68-2.204v-7.872c0-1.006-.043-1.812-.13-2.418-.086-.606-.318-1.115-.697-1.526-.38-.412-.954-.618-1.723-.618-.62 0-1.209.183-1.766.549-.557.366-.99.857-1.3 1.475-.345.789-.517 2.184-.517 4.185zm20.65-14.15v7.152c.885-.915 1.786-1.615 2.705-2.1.92-.487 2.056-.73 3.411-.73 1.562 0 2.932.37 4.109 1.107s2.09 1.806 2.74 3.207c.648 1.4.972 3.061.972 4.982 0 1.418-.18 2.718-.542 3.902-.362 1.183-.887 2.21-1.576 3.078a7.115 7.115 0 0 1-2.507 2.015c-.982.475-2.064.712-3.247.712a7.83 7.83 0 0 1-2.042-.257c-.637-.172-1.18-.398-1.628-.678a7.366 7.366 0 0 1-1.145-.866 19.54 19.54 0 0 1-1.25-1.338v.464c0 .88-.212 1.546-.637 1.998-.425.451-.965.677-1.62.677-.665 0-1.197-.226-1.593-.677-.396-.452-.594-1.118-.594-1.998V17.88c0-.949.192-1.666.577-2.152.385-.486.922-.729 1.61-.729.724 0 1.281.232 1.672.695.39.463.586 1.123.586 1.98zm.225 13.91c0 1.863.427 3.295 1.283 4.296.856 1 1.978 1.5 3.368 1.5 1.183 0 2.202-.511 3.058-1.535.855-1.023 1.283-2.49 1.283-4.399 0-1.235-.178-2.298-.534-3.19-.356-.892-.861-1.58-1.516-2.066-.654-.486-1.418-.73-2.291-.73-.896 0-1.694.244-2.395.73-.7.486-1.252 1.189-1.654 2.11-.401.92-.602 2.014-.602 3.283zm31.348 1.046h-9.2c.012 1.063.227 2 .646 2.812.42.812.976 1.424 1.671 1.835a4.429 4.429 0 0 0 2.3.618c.563 0 1.077-.066 1.542-.197a5.033 5.033 0 0 0 1.352-.618c.437-.28.839-.58 1.206-.9.368-.32.844-.755 1.43-1.304.241-.205.586-.308 1.034-.308.482 0 .873.131 1.171.394.299.263.448.635.448 1.115 0 .423-.166.917-.5 1.483-.333.566-.835 1.11-1.507 1.63-.672.52-1.516.951-2.532 1.294-1.017.343-2.185.515-3.506.515-3.02 0-5.37-.858-7.046-2.573-1.677-1.715-2.515-4.041-2.515-6.98 0-1.383.206-2.667.62-3.85.413-1.183 1.016-2.198 1.809-3.044.792-.846 1.768-1.495 2.928-1.947 1.16-.451 2.447-.677 3.86-.677 1.837 0 3.413.386 4.728 1.157 1.315.772 2.3 1.77 2.955 2.993.654 1.224.982 2.47.982 3.739 0 1.178-.34 1.94-1.017 2.29-.677.348-1.63.523-2.86.523zm-9.2-2.659h8.528c-.115-1.6-.549-2.798-1.301-3.593-.752-.794-1.743-1.192-2.972-1.192-1.171 0-2.133.403-2.885 1.21-.753.806-1.21 1.997-1.37 3.575zm30.66 8.353v-.464c-.633.72-1.256 1.307-1.87 1.758a7.049 7.049 0 0 1-1.998 1.03 7.538 7.538 0 0 1-2.352.351 6.953 6.953 0 0 1-3.127-.712 7.292 7.292 0 0 1-2.49-2.032c-.7-.88-1.23-1.915-1.593-3.104-.361-1.19-.542-2.476-.542-3.86 0-2.926.718-5.207 2.153-6.842 1.436-1.635 3.325-2.453 5.668-2.453 1.355 0 2.498.232 3.428.695.93.463 1.838 1.175 2.722 2.135v-6.911c0-.96.192-1.687.577-2.179.385-.491.933-.737 1.645-.737.713 0 1.26.226 1.646.677.384.452.577 1.118.577 1.998v20.65c0 .891-.207 1.56-.62 2.006-.414.446-.948.669-1.603.669-.643 0-1.174-.232-1.593-.695-.42-.463-.629-1.123-.629-1.98zm-9.252-6.878c0 1.27.198 2.35.594 3.242.397.891.94 1.563 1.628 2.015.69.451 1.442.677 2.257.677.827 0 1.582-.214 2.266-.643.683-.429 1.228-1.086 1.636-1.972.408-.886.612-1.992.612-3.319 0-1.246-.204-2.318-.612-3.215-.408-.898-.959-1.584-1.654-2.059a3.963 3.963 0 0 0-2.282-.711c-.862 0-1.631.243-2.309.729-.677.486-1.203 1.183-1.576 2.092s-.56 1.964-.56 3.164z" fill="#F5F5F5"/></g></svg>