<svg width="416" height="171" viewBox="0 0 416 171" xmlns="http://www.w3.org/2000/svg" xmlns:xlink="http://www.w3.org/1999/xlink"><title>embed21</title><defs><path id="a" d="M0 0h416v171H0z"/></defs><g fill="none" fill-rule="evenodd"><mask id="b" fill="#fff"><use xlink:href="#a"/></mask><path d="M0 0h416v171H0z" mask="url(#b)" stroke-width="10" stroke="#FAFAFA"/><path d="M43 63h37.938v9.781h-23.75v7.281h22.03v9.344h-22.03v9.031h24.437v10.376H43V63zm149.375 0h26.5c4.417 0 7.807 1.094 10.172 3.281 2.364 2.188 3.547 4.896 3.547 8.125 0 2.709-.844 5.031-2.531 6.969-1.126 1.292-2.771 2.312-4.938 3.063 3.292.791 5.714 2.15 7.266 4.078 1.552 1.927 2.328 4.349 2.328 7.265 0 2.375-.552 4.51-1.656 6.406a12.198 12.198 0 0 1-4.532 4.5c-1.187.688-2.979 1.188-5.375 1.5-3.187.417-5.302.626-6.344.626h-24.437V63zm-58.194-11.51l13.17 13.17-14.628 24.793 24.77-14.65 13.126 13.125-32.394 32.394-8.176-8.175 16.098-16.098-22.44 9.756-7.402-7.403 9.778-22.417-16.098 16.097-8.198-8.198L134.18 51.49zm72.475 29.479h6.156c2.209 0 3.745-.38 4.61-1.14.864-.761 1.297-1.86 1.297-3.298 0-1.333-.433-2.375-1.297-3.125-.865-.75-2.37-1.125-4.516-1.125h-6.25v8.688zm0 18h7.219c2.438 0 4.156-.433 5.156-1.297 1-.865 1.5-2.026 1.5-3.484 0-1.355-.495-2.443-1.484-3.266-.99-.823-2.724-1.234-5.203-1.234h-7.188v9.28zM263.437 63h37.938v9.781h-23.75v7.281h22.031v9.344h-22.031v9.031h24.438v10.376h-38.625V63zm67.782 0h21.031c4.146 0 7.495.562 10.047 1.688 2.552 1.125 4.661 2.74 6.328 4.843 1.667 2.104 2.875 4.552 3.625 7.344.75 2.792 1.125 5.75 1.125 8.875 0 4.896-.557 8.693-1.672 11.39-1.114 2.699-2.661 4.959-4.64 6.782-1.98 1.823-4.105 3.036-6.375 3.64-3.105.834-5.917 1.25-8.438 1.25h-21.031V63zm14.156 10.375v25.031h3.469c2.958 0 5.062-.328 6.312-.984 1.25-.656 2.23-1.802 2.938-3.438.708-1.635 1.062-4.286 1.062-7.953 0-4.854-.791-8.177-2.375-9.969-1.583-1.791-4.208-2.687-7.875-2.687h-3.531z" fill="#FAFAFA"/></g></svg>