<svg width="134" height="43" viewBox="0 0 134 43" xmlns="http://www.w3.org/2000/svg"><title>ESFIVP-I-2a</title><g fill="none" fill-rule="evenodd"><path d="M74.099 9.224l-.037-.096L75.5 7.595c.147-.157.286-.31.416-.457.13-.148.243-.295.339-.442.096-.148.172-.294.229-.439.056-.145.084-.296.084-.453 0-.31-.091-.539-.272-.689-.182-.15-.445-.225-.789-.225-.251 0-.47.032-.66.096a4.98 4.98 0 0 0-.505.199 2.867 2.867 0 0 1-.07-.21 7.69 7.69 0 0 1-.062-.225c.132-.064.309-.134.53-.21.221-.076.475-.114.76-.114.24 0 .46.027.659.081.199.054.369.137.509.25.14.113.248.255.324.424.076.17.114.37.114.601 0 .157-.022.312-.066.464a2.048 2.048 0 0 1-.203.464 3.862 3.862 0 0 1-.342.491c-.138.169-.298.35-.479.542l-.951 1.009h2.248c.005.04.008.082.011.126a1.886 1.886 0 0 1 0 .243c-.003.034-.006.069-.011.103h-3.214zm4.349-2.352c0-.353.039-.68.118-.98.078-.299.194-.557.346-.773.153-.217.342-.385.568-.505.226-.121.486-.181.781-.181.295 0 .555.06.781.181.226.12.416.288.568.505.152.216.268.474.346.773.079.3.118.627.118.98 0 .354-.039.681-.118.981-.078.3-.194.557-.346.774a1.625 1.625 0 0 1-.568.505 1.64 1.64 0 0 1-.781.18 1.64 1.64 0 0 1-.781-.18 1.634 1.634 0 0 1-.568-.505 2.377 2.377 0 0 1-.346-.774 3.845 3.845 0 0 1-.118-.981zm1.813-1.975c-.408 0-.724.165-.947.494-.224.329-.336.823-.336 1.481 0 .659.111 1.153.332 1.482.221.329.538.494.951.494.408 0 .722-.165.943-.494.222-.329.332-.823.332-1.482 0-.658-.11-1.152-.332-1.481-.221-.329-.535-.494-.943-.494zm3.228.855a.689.689 0 0 1-.11-.165 1.825 1.825 0 0 1-.081-.196l1.842-.943h.037v4.334h1.054l.015.107a.856.856 0 0 1 0 .221l-.015.114h-2.69a.96.96 0 0 1-.015-.207c0-.048.001-.096.004-.143a.388.388 0 0 1 .011-.092h1.135V5.17l-1.187.582zm3.803 2.912l-.051-.074 2.211-4.238c.059.01.125.03.199.059.074.029.15.066.229.111l-1.865 3.677h1.813v-1.57c.088-.014.172-.022.251-.022.078 0 .159.008.243.022v1.57h.788a1.147 1.147 0 0 1 0 .465h-.788v1.002a.588.588 0 0 1-.129.015h-.243a.491.491 0 0 1-.122-.015V8.664h-2.536zm7.71-1.784a1.815 1.815 0 0 1 .011.383.943.943 0 0 1-.011.111h-3.685a1.993 1.993 0 0 1 0-.494h3.685zm.472 2.344l-.037-.096 1.437-1.533c.148-.157.286-.31.417-.457.13-.148.243-.295.339-.442.096-.148.172-.294.228-.439.057-.145.085-.296.085-.453 0-.31-.091-.539-.273-.689-.182-.15-.444-.225-.788-.225-.251 0-.471.032-.66.096-.189.064-.358.13-.505.199a2.867 2.867 0 0 1-.07-.21 13.123 13.123 0 0 1-.063-.225c.133-.064.31-.134.531-.21a2.33 2.33 0 0 1 .759-.114c.241 0 .461.027.66.081.199.054.368.137.509.25.14.113.248.255.324.424.076.17.114.37.114.601 0 .157-.022.312-.066.464a2.094 2.094 0 0 1-.203.464 3.775 3.775 0 0 1-.343.491c-.137.169-.297.35-.479.542l-.951 1.009h2.248a1.94 1.94 0 0 1 0 .472h-3.213zm4.348-2.352c0-.353.04-.68.118-.98.079-.299.194-.557.347-.773.152-.217.341-.385.567-.505.226-.121.487-.181.782-.181.295 0 .555.06.781.181.226.12.415.288.567.505.153.216.268.474.347.773.078.3.118.627.118.98 0 .354-.04.681-.118.981-.079.3-.194.557-.347.774a1.622 1.622 0 0 1-.567.505 1.64 1.64 0 0 1-.781.18c-.295 0-.556-.06-.782-.18a1.622 1.622 0 0 1-.567-.505 2.379 2.379 0 0 1-.347-.774 3.89 3.89 0 0 1-.118-.981zm1.814-1.975c-.408 0-.724.165-.948.494-.223.329-.335.823-.335 1.481 0 .659.111 1.153.332 1.482.221.329.538.494.951.494.407 0 .722-.165.943-.494.221-.329.332-.823.332-1.482 0-.658-.111-1.152-.332-1.481-.221-.329-.536-.494-.943-.494zm2.682 4.327l-.036-.096 1.437-1.533c.147-.157.286-.31.416-.457.131-.148.244-.295.34-.442.095-.148.171-.294.228-.439.056-.145.085-.296.085-.453 0-.31-.091-.539-.273-.689-.182-.15-.445-.225-.789-.225-.25 0-.47.032-.66.096-.189.064-.357.13-.504.199a2.458 2.458 0 0 1-.07-.21c-.023-.076-.043-.151-.063-.225.133-.064.31-.134.531-.21a2.33 2.33 0 0 1 .759-.114c.241 0 .461.027.66.081.199.054.368.137.508.25.14.113.248.255.325.424.076.17.114.37.114.601 0 .157-.022.312-.067.464a2.043 2.043 0 0 1-.202.464 3.875 3.875 0 0 1-.343.491c-.138.169-.297.35-.479.542l-.951 1.009h2.248a1.94 1.94 0 0 1 0 .472h-3.214zm4.349-2.352c0-.353.039-.68.118-.98.079-.299.194-.557.346-.773.153-.217.342-.385.568-.505.226-.121.487-.181.781-.181.295 0 .555.06.782.181.226.12.415.288.567.505.152.216.268.474.347.773.078.3.117.627.117.98 0 .354-.039.681-.117.981a2.4 2.4 0 0 1-.347.774 1.622 1.622 0 0 1-.567.505c-.227.12-.487.18-.782.18-.294 0-.555-.06-.781-.18a1.634 1.634 0 0 1-.568-.505 2.399 2.399 0 0 1-.346-.774 3.845 3.845 0 0 1-.118-.981zm1.813-1.975a1.08 1.08 0 0 0-.947.494c-.223.329-.335.823-.335 1.481 0 .659.11 1.153.331 1.482.221.329.538.494.951.494.408 0 .723-.165.944-.494.221-.329.331-.823.331-1.482 0-.658-.11-1.152-.331-1.481-.221-.329-.536-.494-.944-.494zm4.702.568a1.647 1.647 0 0 1 .443 0c.01.088.017.194.022.317.005.123.007.233.007.331.044-.093.101-.184.17-.272a1.188 1.188 0 0 1 .973-.465c.142 0 .265.018.368.052a.836.836 0 0 1 .461.361c.052.084.099.177.144.28.054-.078.115-.159.184-.243.069-.084.147-.158.236-.225a1.122 1.122 0 0 1 .693-.225c.437 0 .753.126.947.376.194.251.291.61.291 1.076v2.396a2.114 2.114 0 0 1-.487 0V6.998c0-.398-.065-.693-.195-.885-.13-.191-.325-.287-.586-.287a.854.854 0 0 0-.413.096.869.869 0 0 0-.294.258 1.21 1.21 0 0 0-.181.379 1.651 1.651 0 0 0-.063.461v2.204a2.141 2.141 0 0 1-.486 0V6.902c0-.378-.06-.658-.181-.84a.584.584 0 0 0-.519-.273.8.8 0 0 0-.421.115 1.059 1.059 0 0 0-.331.32 1.63 1.63 0 0 0-.218.49 2.389 2.389 0 0 0-.077.623v1.887a2.111 2.111 0 0 1-.487 0V5.465zm6.472 1.953c0 .501.116.87.346 1.106.231.236.578.354 1.04.354.186 0 .36-.016.519-.048a3.37 3.37 0 0 0 .468-.129c.025.054.045.12.059.199.015.078.025.15.03.213-.143.064-.31.114-.501.148a3.602 3.602 0 0 1-.627.051c-.324 0-.603-.047-.836-.143a1.506 1.506 0 0 1-.907-1.018 2.734 2.734 0 0 1-.107-.785c0-.275.033-.533.1-.774.066-.24.167-.452.302-.633a1.41 1.41 0 0 1 .519-.428c.212-.103.465-.155.76-.155.245 0 .464.042.656.126.191.083.352.2.482.35.131.15.229.329.295.538.067.209.1.436.1.681a3.881 3.881 0 0 1-.015.347h-2.683zm2.211-.405c0-.153-.019-.303-.059-.45a1.119 1.119 0 0 0-.184-.387.962.962 0 0 0-.324-.269 1.03 1.03 0 0 0-.479-.103c-.344 0-.612.106-.804.317-.191.211-.307.508-.346.892h2.196zm1.725-1.135h-.641a1.568 1.568 0 0 1 0-.413h.641v-.708l.457-.449h.029v1.157h1.018a.841.841 0 0 1 .014.199l-.003.118a.86.86 0 0 1-.011.096h-1.018v2.447c0 .122.016.219.048.291a.43.43 0 0 0 .125.166.415.415 0 0 0 .177.077 1.384 1.384 0 0 0 .653-.048c.034.128.059.266.074.413a2.133 2.133 0 0 1-.62.081c-.28 0-.507-.075-.681-.225-.175-.15-.262-.394-.262-.733V5.878zm2.3-.413a2.227 2.227 0 0 1 .364-.011.972.972 0 0 1 .122.011v2.116c0 .265.027.482.081.652a.888.888 0 0 0 .24.398.872.872 0 0 0 .387.199c.152.036.324.055.516.055.162 0 .307-.009.435-.026.127-.017.24-.04.339-.07V5.465a2.227 2.227 0 0 1 .364-.011.972.972 0 0 1 .122.011v3.663l-.125.037a.997.997 0 0 0-.339.177 1.213 1.213 0 0 0-.398.556.834.834 0 0 0-.052.269c0 .128.039.232.118.314.079.081.199.121.361.121.054 0 .113-.003.177-.011a.986.986 0 0 0 .207-.048.919.919 0 0 1 .055.196c.012.071.021.136.026.195a1.394 1.394 0 0 1-.251.055 2.14 2.14 0 0 1-.295.019c-.113 0-.222-.015-.328-.045a.883.883 0 0 1-.284-.133.638.638 0 0 1-.199-.228.704.704 0 0 1-.073-.332c0-.147.041-.311.125-.493.083-.182.204-.344.361-.487a3.291 3.291 0 0 1-1.036-.044 1.218 1.218 0 0 1-.53-.254 1.292 1.292 0 0 1-.358-.52c-.088-.221-.132-.508-.132-.862V5.465zM74.372 13.54h2.838a1.724 1.724 0 0 1 0 .465h-2.33v1.791h1.873a1.684 1.684 0 0 1 0 .464H74.88v2.115h2.396c.005.03.008.066.011.107.002.042.004.082.004.122 0 .034-.002.075-.004.121a1.16 1.16 0 0 1-.011.114h-2.904V13.54zm3.855 1.541a2.227 2.227 0 0 1 .364-.011.972.972 0 0 1 .122.011v2.115c0 .265.027.483.081.652.054.17.134.303.24.398a.862.862 0 0 0 .387.199c.152.037.324.056.516.056.162 0 .307-.009.435-.026.127-.018.24-.041.339-.07v-3.324a2.227 2.227 0 0 1 .364-.011.972.972 0 0 1 .122.011v3.663a6.285 6.285 0 0 1-.608.129 4.215 4.215 0 0 1-.689.055c-.231 0-.449-.022-.653-.066a1.208 1.208 0 0 1-.53-.255 1.282 1.282 0 0 1-.358-.519c-.088-.221-.132-.509-.132-.862v-2.145zm4.267 0a1.68 1.68 0 0 1 .442 0c.01.088.018.192.023.313.005.12.007.229.007.328.098-.182.236-.336.413-.461s.41-.188.7-.188h.077c.027 0 .058.003.093.008a1.226 1.226 0 0 1 0 .464.767.767 0 0 0-.093-.007h-.07c-.334 0-.602.105-.803.316-.201.212-.302.563-.302 1.054v1.931c-.03.005-.07.009-.122.012a3.341 3.341 0 0 1-.239 0 1.228 1.228 0 0 1-.126-.012v-3.758zm3.936 3.42c.393 0 .687-.138.881-.413.194-.275.291-.651.291-1.128 0-.476-.097-.852-.291-1.128-.194-.275-.488-.412-.881-.412s-.686.137-.881.412c-.193.276-.291.652-.291 1.128 0 .477.098.853.291 1.128.195.275.488.413.881.413zm0 .427c-.28 0-.525-.05-.737-.151a1.458 1.458 0 0 1-.527-.416 1.793 1.793 0 0 1-.313-.627 2.8 2.8 0 0 1-.103-.774 2.8 2.8 0 0 1 .103-.774c.069-.241.173-.449.313-.626s.316-.316.527-.417c.212-.1.457-.151.737-.151.28 0 .525.051.734.151.208.101.383.24.523.417s.246.385.317.626c.071.241.107.499.107.774s-.036.533-.107.774c-.071.241-.177.45-.317.627a1.47 1.47 0 0 1-.523.416 1.67 1.67 0 0 1-.734.151zm2.764-3.847a1.63 1.63 0 0 1 .442 0l.045.516c.103-.158.252-.298.445-.421.195-.122.447-.184.756-.184.231 0 .442.036.634.107.192.071.355.183.49.335.135.153.241.345.317.575.076.231.114.509.114.833 0 .325-.044.616-.132.874a1.67 1.67 0 0 1-1.014 1.068 2.346 2.346 0 0 1-.851.144c-.118 0-.246-.01-.384-.029a1.983 1.983 0 0 1-.375-.089v1.769a2.227 2.227 0 0 1-.365.011.991.991 0 0 1-.122-.011v-5.498zm.487 3.28c.113.044.229.077.35.099.12.022.281.033.483.033.191 0 .373-.03.545-.092.172-.061.322-.159.45-.291.127-.133.228-.301.302-.505.074-.204.11-.448.11-.734 0-.451-.084-.805-.254-1.061-.169-.255-.443-.383-.822-.383-.118 0-.245.019-.383.059a1.031 1.031 0 0 0-.38.203 1.123 1.123 0 0 0-.287.375c-.076.155-.114.35-.114.586v1.711zm5.321.14c.393 0 .687-.138.881-.413.194-.275.291-.651.291-1.128 0-.476-.097-.852-.291-1.128-.194-.275-.488-.412-.881-.412s-.686.137-.881.412c-.194.276-.291.652-.291 1.128 0 .477.097.853.291 1.128.195.275.488.413.881.413zm0 .427c-.28 0-.525-.05-.737-.151a1.458 1.458 0 0 1-.527-.416 1.793 1.793 0 0 1-.313-.627 2.8 2.8 0 0 1-.103-.774 2.8 2.8 0 0 1 .103-.774c.069-.241.173-.449.313-.626s.316-.316.527-.417c.212-.1.457-.151.737-.151.28 0 .525.051.734.151.208.101.383.24.523.417s.246.385.317.626c.071.241.107.499.107.774s-.036.533-.107.774c-.071.241-.177.45-.317.627a1.47 1.47 0 0 1-.523.416 1.67 1.67 0 0 1-.734.151zm2.661-.604c.108.044.248.082.42.114s.337.048.494.048c.295 0 .528-.065.7-.195.172-.131.258-.292.258-.483a.634.634 0 0 0-.077-.328.713.713 0 0 0-.206-.218 1.22 1.22 0 0 0-.292-.143l-.332-.114a4.98 4.98 0 0 1-.364-.134 1.227 1.227 0 0 1-.321-.188.876.876 0 0 1-.225-.276.874.874 0 0 1-.085-.405c0-.3.11-.543.328-.73.219-.187.557-.28 1.014-.28a2.99 2.99 0 0 1 .973.162 3.139 3.139 0 0 1-.103.42 3.867 3.867 0 0 0-.394-.103 2.39 2.39 0 0 0-.498-.051c-.3 0-.513.052-.638.158a.52.52 0 0 0-.188.417c0 .093.021.173.063.239a.57.57 0 0 0 .169.17c.072.046.153.087.244.121.091.035.188.067.291.096.133.044.267.092.402.144.135.051.258.119.368.202.111.084.201.19.273.318a.973.973 0 0 1 .107.479c0 .176-.036.337-.107.482a1.07 1.07 0 0 1-.299.369c-.127.1-.28.178-.457.232a1.982 1.982 0 0 1-.582.081c-.236 0-.446-.015-.63-.044a1.928 1.928 0 0 1-.446-.118c.029-.147.076-.295.14-.442zM102.837 18.25c.069.019.14.042.214.066.073.025.156.047.247.067a3.002 3.002 0 0 0 .696.073c.236 0 .439-.028.609-.085a1.22 1.22 0 0 0 .42-.228.908.908 0 0 0 .246-.339c.054-.13.082-.271.082-.424 0-.147-.019-.274-.056-.379a.766.766 0 0 0-.191-.292 1.561 1.561 0 0 0-.376-.254 6.68 6.68 0 0 0-.601-.261 5.817 5.817 0 0 1-.49-.207 1.676 1.676 0 0 1-.409-.269 1.148 1.148 0 0 1-.28-.379 1.306 1.306 0 0 1-.104-.553c0-.398.144-.72.432-.966.287-.245.706-.368 1.256-.368a4.035 4.035 0 0 1 1.099.155c-.01.073-.024.148-.041.225a1.82 1.82 0 0 1-.063.217 3.087 3.087 0 0 0-.453-.107 3.199 3.199 0 0 0-.549-.048c-.408 0-.7.084-.877.251a.833.833 0 0 0-.266.633.71.71 0 0 0 .082.347.829.829 0 0 0 .224.258c.096.073.21.141.343.202.133.062.275.122.428.181.206.084.399.17.578.258.179.088.333.192.461.31.128.117.228.256.302.416.074.16.111.352.111.579 0 .255-.046.482-.137.681-.091.199-.22.366-.387.502a1.75 1.75 0 0 1-.611.309 2.865 2.865 0 0 1-.811.107c-.29 0-.531-.021-.723-.063a5.515 5.515 0 0 1-.538-.143 2.143 2.143 0 0 1 .133-.472zm6.162-1.894c0-.325-.076-.562-.228-.712-.153-.15-.379-.224-.679-.224a3.294 3.294 0 0 0-.973.14.72.72 0 0 1-.062-.192 1.19 1.19 0 0 1-.026-.236 3.998 3.998 0 0 1 1.046-.14c.477 0 .831.104 1.062.313.231.209.346.537.346.984v2.484l-.14.037a.958.958 0 0 0-.335.162 1.176 1.176 0 0 0-.243.251 1.026 1.026 0 0 0-.195.56c0 .128.039.232.117.313.079.081.199.122.362.122.053 0 .112-.004.176-.011.064-.008.133-.023.207-.048a.87.87 0 0 1 .055.195c.012.072.021.136.026.195a1.294 1.294 0 0 1-.251.056 2.303 2.303 0 0 1-.295.018c-.113 0-.222-.015-.327-.044a.917.917 0 0 1-.284-.133.627.627 0 0 1-.199-.228.704.704 0 0 1-.074-.332c0-.147.042-.312.125-.494.084-.181.204-.343.362-.486a3.962 3.962 0 0 1-.413.022c-.457 0-.817-.091-1.08-.273-.263-.181-.394-.476-.394-.884a1.116 1.116 0 0 1 .431-.918c.135-.105.297-.185.486-.24.189-.053.397-.081.623-.081.177 0 .329.007.457.019s.233.023.317.033v-.228zm0 .656c-.084-.01-.188-.021-.313-.033a3.47 3.47 0 0 0-.358-.019c-.368 0-.653.069-.855.207a.67.67 0 0 0-.302.589c0 .162.031.292.092.391a.62.62 0 0 0 .24.224c.098.052.206.086.324.104.118.017.236.026.354.026a4.058 4.058 0 0 0 .818-.081v-1.408zm1.975-1.519h-.472a1.167 1.167 0 0 1-.014-.199l.003-.118c.003-.039.007-.071.011-.095h.959v4.075c0 .207-.03.376-.089.509a.805.805 0 0 1-.56.475 1.416 1.416 0 0 1-.368.049c-.153 0-.278-.01-.376-.03a1.26 1.26 0 0 1-.251-.074c.01-.054.025-.121.044-.203a.95.95 0 0 1 .067-.195c.113.049.255.074.427.074.049 0 .11-.002.181-.007a.483.483 0 0 0 .202-.06.442.442 0 0 0 .166-.162.604.604 0 0 0 .07-.324v-3.715zm-.243-1.334a2.602 2.602 0 0 1-.011-.162c-.002-.064-.004-.118-.004-.162 0-.039.002-.089.004-.147.003-.059.006-.109.011-.148.044-.005.098-.009.162-.011s.118-.004.162-.004c.04 0 .089.002.148.004a1.6 1.6 0 0 1 .147.011 2.877 2.877 0 0 1 .011.457 2.005 2.005 0 0 1-.011.162 2.913 2.913 0 0 1-.457.011 2.005 2.005 0 0 1-.162-.011zm1.998.922a2.227 2.227 0 0 1 .364-.011.991.991 0 0 1 .122.011v2.115c0 .265.027.483.081.652.054.17.134.303.24.398a.863.863 0 0 0 .386.199c.153.037.325.056.517.056.162 0 .307-.009.435-.026.127-.018.24-.041.339-.07v-3.324a2.227 2.227 0 0 1 .364-.011.972.972 0 0 1 .122.011v3.663a6.285 6.285 0 0 1-.608.129 4.215 4.215 0 0 1-.689.055c-.231 0-.449-.022-.653-.066a1.203 1.203 0 0 1-.53-.255 1.282 1.282 0 0 1-.358-.519c-.088-.221-.132-.509-.132-.862v-2.145zm4.267 0a1.62 1.62 0 0 1 .442 0 7.66 7.66 0 0 1 .03.678c.049-.089.113-.178.191-.269a1.467 1.467 0 0 1 .642-.428c.137-.047.287-.07.449-.07.433 0 .747.129.944.387.196.258.295.621.295 1.087v2.373c-.03.005-.07.009-.122.012a3.341 3.341 0 0 1-.239 0 1.2 1.2 0 0 1-.126-.012v-2.226c0-.417-.065-.717-.195-.898-.13-.182-.326-.273-.586-.273-.172 0-.334.034-.486.103a1.117 1.117 0 0 0-.395.298 1.45 1.45 0 0 0-.262.483c-.063.192-.095.41-.095.656v1.857c-.03.005-.07.009-.122.012a3.341 3.341 0 0 1-.24 0 1.233 1.233 0 0 1-.125-.012v-3.758zm6.155 3.383c.432.01.74.099.925.269.184.169.276.394.276.674a.952.952 0 0 1-.147.52 1.303 1.303 0 0 1-.413.398c-.177.11-.387.196-.63.258a3.255 3.255 0 0 1-.793.092c-.221 0-.424-.017-.608-.052a1.519 1.519 0 0 1-.479-.166.827.827 0 0 1-.313-.302 1.001 1.001 0 0 1 .051-.999c.108-.171.249-.299.421-.383a.813.813 0 0 1-.236-.224.572.572 0 0 1-.096-.336c0-.191.045-.351.136-.479.091-.128.213-.243.365-.346a1.21 1.21 0 0 1-.413-.436 1.29 1.29 0 0 1-.154-.648c0-.182.03-.353.092-.512.061-.16.153-.299.276-.417.123-.118.274-.211.453-.28.18-.068.387-.103.623-.103.202 0 .381.026.538.078.157.051.295.119.413.202.049-.019.111-.041.184-.066.074-.025.155-.046.244-.063.088-.017.179-.032.272-.044.094-.012.185-.018.273-.018a.92.92 0 0 1 .029.243.954.954 0 0 1-.029.25h-.7c.069.108.121.223.158.343.037.12.056.249.056.387 0 .212-.037.398-.111.56a1.15 1.15 0 0 1-.306.409c-.13.111-.282.196-.457.255a1.745 1.745 0 0 1-.564.088 1.71 1.71 0 0 1-.553-.081 1.06 1.06 0 0 0-.291.254.48.48 0 0 0-.062.417.252.252 0 0 0 .092.121.529.529 0 0 0 .195.089c.084.022.192.033.324.033l.959.015zm-1.047.442c-.231-.005-.417.06-.557.195a.709.709 0 0 0-.21.535c0 .118.028.216.081.294a.55.55 0 0 0 .225.185c.096.044.208.075.336.092.127.017.263.026.405.026.457 0 .813-.078 1.069-.233.255-.154.383-.34.383-.556 0-.187-.064-.32-.192-.398-.127-.079-.336-.121-.626-.125l-.914-.015zm-.546-2.602c0 .256.076.471.225.645.15.174.385.262.704.262.32 0 .555-.088.708-.262a.945.945 0 0 0 .228-.645.95.95 0 0 0-.228-.645c-.153-.174-.388-.262-.708-.262-.319 0-.554.088-.704.262a.962.962 0 0 0-.225.645zm4.998 2.197c.393 0 .686-.138.881-.413.194-.275.291-.651.291-1.128 0-.476-.097-.852-.291-1.128-.195-.275-.488-.412-.881-.412s-.687.137-.881.412c-.194.276-.291.652-.291 1.128 0 .477.097.853.291 1.128.194.275.488.413.881.413zm0 .427c-.28 0-.526-.05-.737-.151a1.45 1.45 0 0 1-.527-.416 1.795 1.795 0 0 1-.314-.627 2.839 2.839 0 0 1-.103-.774c0-.275.035-.533.103-.774a1.79 1.79 0 0 1 .314-.626c.14-.177.315-.316.527-.417.211-.1.457-.151.737-.151.28 0 .524.051.733.151.209.101.384.24.524.417s.245.385.316.626c.072.241.107.499.107.774s-.035.533-.107.774c-.071.241-.176.45-.316.627s-.315.316-.524.416a1.666 1.666 0 0 1-.733.151zm2.661-.604c.108.044.248.082.42.114s.336.048.493.048c.295 0 .529-.065.701-.195.172-.131.258-.292.258-.483a.625.625 0 0 0-.078-.328.69.69 0 0 0-.206-.218 1.195 1.195 0 0 0-.291-.143l-.332-.114a5.003 5.003 0 0 1-.365-.134 1.22 1.22 0 0 1-.32-.188.85.85 0 0 1-.225-.276.861.861 0 0 1-.085-.405c0-.3.109-.543.328-.73.219-.187.557-.28 1.014-.28.191 0 .377.018.556.052.179.034.318.071.417.11a2.996 2.996 0 0 1-.104.42 3.798 3.798 0 0 0-.394-.103 2.39 2.39 0 0 0-.498-.051c-.299 0-.512.052-.637.158a.52.52 0 0 0-.188.417c0 .093.021.173.063.239a.559.559 0 0 0 .169.17c.071.046.152.087.243.121.091.035.188.067.291.096.133.044.267.092.402.144.135.051.258.119.369.202.11.084.201.19.272.318a.962.962 0 0 1 .107.479 1.07 1.07 0 0 1-.405.851c-.128.1-.28.178-.457.232a1.987 1.987 0 0 1-.582.081c-.236 0-.446-.015-.631-.044a1.943 1.943 0 0 1-.446-.118 2.22 2.22 0 0 1 .141-.442zm-54.676 6.785H73.9a.841.841 0 0 1-.011-.088 1.918 1.918 0 0 1 0-.229.86.86 0 0 1 .011-.096h.641v-.331c0-.463.102-.809.306-1.04.204-.23.527-.346.97-.346a2.052 2.052 0 0 1 .501.059 2.64 2.64 0 0 1-.033.229 4.112 4.112 0 0 1-.048.191 3.013 3.013 0 0 0-.177-.033 1.475 1.475 0 0 0-.575.022.518.518 0 0 0-.247.147.727.727 0 0 0-.155.299 1.82 1.82 0 0 0-.055.494v.309h1.032a.86.86 0 0 1 .011.096 2.325 2.325 0 0 1 0 .229.841.841 0 0 1-.011.088h-1.032v3.346a2.111 2.111 0 0 1-.487 0v-3.346zm3.634 3.007c.393 0 .687-.137.881-.412.194-.276.291-.652.291-1.128 0-.477-.097-.853-.291-1.128-.194-.275-.488-.413-.881-.413s-.686.138-.881.413c-.194.275-.291.651-.291 1.128 0 .476.097.852.291 1.128.195.275.488.412.881.412zm0 .428c-.28 0-.525-.051-.737-.151a1.472 1.472 0 0 1-.527-.417 1.788 1.788 0 0 1-.313-.626 2.8 2.8 0 0 1-.103-.774 2.8 2.8 0 0 1 .103-.774c.069-.241.173-.45.313-.627a1.47 1.47 0 0 1 .527-.416c.212-.101.457-.151.737-.151.28 0 .525.05.734.151.208.101.383.239.523.416s.246.386.317.627c.071.241.107.499.107.774s-.036.533-.107.774a1.83 1.83 0 0 1-.317.626c-.14.177-.315.316-.523.417-.209.1-.454.151-.734.151zm2.764-3.848l.114-.011c.037-.002.073-.004.107-.004.04 0 .076.002.111.004l.11.011a7.66 7.66 0 0 1 .03.679 1.503 1.503 0 0 1 .468-.517c.106-.073.227-.133.365-.18.137-.047.287-.07.449-.07.433 0 .747.129.944.387.196.258.295.62.295 1.087v2.373a2.141 2.141 0 0 1-.487 0v-2.226c0-.417-.065-.717-.195-.899-.13-.182-.326-.273-.586-.273-.172 0-.334.035-.486.104a1.105 1.105 0 0 0-.395.298 1.43 1.43 0 0 0-.262.483c-.063.191-.095.41-.095.656v1.857a2.141 2.141 0 0 1-.487 0v-3.759zm6.744-1.658a2.227 2.227 0 0 1 .365-.011.991.991 0 0 1 .122.011v5.329a4.62 4.62 0 0 1-1.275.177c-.271 0-.524-.032-.76-.096a1.55 1.55 0 0 1-.611-.317 1.512 1.512 0 0 1-.409-.582c-.101-.241-.152-.538-.152-.892 0-.325.045-.613.133-.866.089-.253.214-.467.376-.641.162-.175.357-.309.586-.402.228-.093.48-.14.756-.14a2.885 2.885 0 0 1 .869.132v-1.702zm0 2.159a2.427 2.427 0 0 0-.847-.154c-.231 0-.431.039-.601.118-.17.078-.311.188-.424.327a1.438 1.438 0 0 0-.254.505 2.328 2.328 0 0 0-.085.649c0 .511.122.883.365 1.117.243.233.588.35 1.036.35.162 0 .316-.008.464-.026a2.1 2.1 0 0 0 .346-.063v-2.823zm1.754-.501c.03-.004.072-.008.126-.011l.118-.004.121.004c.052.003.092.007.122.011v2.116c0 .265.027.483.081.652a.896.896 0 0 0 .239.398.872.872 0 0 0 .387.199c.153.037.325.055.517.055.162 0 .307-.008.434-.026.128-.017.241-.04.339-.07v-3.324c.03-.004.072-.008.126-.011l.118-.004.121.004c.052.003.092.007.122.011v3.664l-.125.036c-.128.04-.241.099-.34.177a1.237 1.237 0 0 0-.397.557.83.83 0 0 0-.052.269.43.43 0 0 0 .118.313c.078.081.199.122.361.122.054 0 .113-.004.177-.012.064-.007.133-.023.206-.047a.87.87 0 0 1 .055.195c.013.071.022.136.026.195a1.285 1.285 0 0 1-.25.055 2.151 2.151 0 0 1-.295.019 1.23 1.23 0 0 1-.328-.044.927.927 0 0 1-.284-.133.645.645 0 0 1-.272-.56c0-.148.041-.312.125-.494.083-.182.204-.344.361-.486a3.527 3.527 0 0 1-.383.022 3.03 3.03 0 0 1-.653-.067 1.207 1.207 0 0 1-.53-.254 1.282 1.282 0 0 1-.358-.519c-.088-.222-.133-.509-.133-.863v-2.145zm6.339.413h-.472a.841.841 0 0 1-.011-.088 1.918 1.918 0 0 1 0-.229.86.86 0 0 1 .011-.096h.958v3.759a2.141 2.141 0 0 1-.486 0v-3.346zm-.243-1.334a3.464 3.464 0 0 1-.011-.472 1.6 1.6 0 0 1 .011-.147 3.464 3.464 0 0 1 .471-.011c.059.002.109.006.148.011a1.6 1.6 0 0 1 .011.147c.002.059.004.108.004.148 0 .044-.002.098-.004.162a2.005 2.005 0 0 1-.011.162 1.625 1.625 0 0 1-.148.011c-.059.002-.108.004-.147.004-.044 0-.098-.002-.162-.004a2.005 2.005 0 0 1-.162-.011zm2.027.921l.114-.011c.037-.002.073-.004.107-.004.039 0 .076.002.11.004l.111.011c.01.089.017.199.022.332.005.133.007.248.007.347a1.53 1.53 0 0 1 .468-.517c.106-.073.228-.133.366-.18.137-.047.287-.07.449-.07.432 0 .747.129.944.387.196.258.294.62.294 1.087v2.373a2.141 2.141 0 0 1-.486 0v-2.226c0-.417-.065-.717-.195-.899-.131-.182-.326-.273-.586-.273-.172 0-.335.035-.487.104a1.102 1.102 0 0 0-.394.298 1.43 1.43 0 0 0-.262.483c-.064.191-.096.41-.096.656v1.857a2.169 2.169 0 0 1-.486 0v-3.759zm3.685 0a1.66 1.66 0 0 1 .125-.011c.055-.002.106-.004.155-.004.04 0 .089.002.148.004.059.003.103.007.132.011l1.187 3.251 1.209-3.251c.029-.004.069-.008.118-.011.049-.002.093-.004.132-.004.04 0 .084.002.133.004.049.003.089.007.118.011l-1.496 3.759a1.264 1.264 0 0 1-.465 0l-1.496-3.759zM105.704 26.65c0 .501.116.869.347 1.105.231.236.577.354 1.039.354.187 0 .36-.016.52-.048a3.41 3.41 0 0 0 .468-.129.91.91 0 0 1 .059.199c.014.079.024.15.029.214a2.121 2.121 0 0 1-.501.147 3.5 3.5 0 0 1-.626.052c-.325 0-.604-.048-.837-.144a1.506 1.506 0 0 1-.575-.402 1.646 1.646 0 0 1-.332-.615 2.739 2.739 0 0 1-.107-.785c0-.275.034-.533.1-.774a1.89 1.89 0 0 1 .302-.634c.135-.182.308-.324.52-.427.211-.104.464-.155.759-.155.246 0 .464.042.656.125.192.084.353.2.483.35.13.15.228.329.295.538.066.209.099.436.099.682a3.95 3.95 0 0 1-.015.347h-2.683zm2.212-.406c0-.152-.02-.302-.059-.45a1.12 1.12 0 0 0-.185-.387.93.93 0 0 0-.324-.268 1.027 1.027 0 0 0-.479-.104c-.344 0-.612.106-.804.317-.191.212-.307.509-.346.892h2.197zm1.452 1.695c.108.045.248.083.42.115s.336.047.493.047c.295 0 .529-.065.701-.195a.586.586 0 0 0 .258-.483.62.62 0 0 0-.078-.327.69.69 0 0 0-.206-.218 1.197 1.197 0 0 0-.291-.144l-.332-.114a4.567 4.567 0 0 1-.365-.133 1.249 1.249 0 0 1-.32-.188.86.86 0 0 1-.225-.276.861.861 0 0 1-.085-.405c0-.3.109-.543.328-.73.219-.187.556-.28 1.014-.28a2.979 2.979 0 0 1 .973.162 2.996 2.996 0 0 1-.104.42 3.798 3.798 0 0 0-.394-.103 2.39 2.39 0 0 0-.498-.052c-.299 0-.512.053-.637.159a.517.517 0 0 0-.188.416c0 .094.021.173.062.24a.56.56 0 0 0 .17.169 1.2 1.2 0 0 0 .243.122c.091.034.188.066.291.096.133.044.267.092.402.143.135.052.258.12.369.203.11.084.201.189.272.317a.967.967 0 0 1 .107.479c0 .177-.035.338-.107.483-.071.145-.17.268-.298.368-.128.101-.28.179-.457.233a1.987 1.987 0 0 1-.582.081c-.236 0-.446-.015-.631-.045a1.897 1.897 0 0 1-.446-.117 2.23 2.23 0 0 1 .141-.443zm3.604-2.83h-.641a1.533 1.533 0 0 1 0-.413h.641v-.707l.457-.45h.029v1.157h1.018a1.2 1.2 0 0 1 .011.317c-.003.04-.007.071-.011.096h-1.018v2.447c0 .123.016.22.048.291a.423.423 0 0 0 .125.166.415.415 0 0 0 .177.077 1.386 1.386 0 0 0 .653-.047c.034.127.059.265.074.412a2.1 2.1 0 0 1-.62.081c-.28 0-.507-.074-.682-.224-.174-.151-.261-.395-.261-.734v-2.469zm2.557 0h-.471a1.308 1.308 0 0 1-.011-.317.674.674 0 0 1 .011-.096h.958v3.759a2.111 2.111 0 0 1-.487 0v-3.346zm-.243-1.334a2.602 2.602 0 0 1-.011-.162c-.002-.064-.004-.118-.004-.162 0-.04.002-.089.004-.148.003-.059.006-.108.011-.147a3.472 3.472 0 0 1 .472-.011 1.6 1.6 0 0 1 .147.011 2.913 2.913 0 0 1 .011.457 2.005 2.005 0 0 1-.011.162 1.6 1.6 0 0 1-.147.011c-.059.002-.108.004-.147.004-.045 0-.099-.002-.163-.004a2.039 2.039 0 0 1-.162-.011zm4.519 4.209c.024.049.048.115.07.199.022.083.038.152.048.206a2.793 2.793 0 0 1-.944.155c-.614 0-1.081-.169-1.4-.505-.32-.337-.479-.824-.479-1.463 0-.28.039-.539.118-.778.078-.238.194-.446.346-.623.152-.177.343-.315.571-.416.229-.101.493-.151.793-.151.186 0 .364.013.534.04.17.027.303.058.402.092 0 .064-.009.138-.026.222-.017.083-.036.15-.055.199a2.258 2.258 0 0 0-.373-.089 3.053 3.053 0 0 0-.482-.037c-.221 0-.415.038-.579.115a1.134 1.134 0 0 0-.413.32c-.11.138-.193.3-.247.486a2.232 2.232 0 0 0-.081.62c0 .531.127.92.38 1.168.253.248.596.372 1.028.372a2.331 2.331 0 0 0 .789-.132zm1.275-2.875h-.472a1.308 1.308 0 0 1-.011-.317.674.674 0 0 1 .011-.096h.958v3.759a2.169 2.169 0 0 1-.486 0v-3.346zm-.244-1.334a3.705 3.705 0 0 1-.011-.472 2.88 2.88 0 0 1 .011-.147 3.464 3.464 0 0 1 .472-.011c.059.002.108.006.148.011.005.039.008.088.011.147a4.482 4.482 0 0 1 0 .31 2.602 2.602 0 0 1-.011.162c-.04.005-.089.009-.148.011s-.108.004-.147.004c-.044 0-.098-.002-.162-.004a2.068 2.068 0 0 1-.163-.011zm2.293 1.334h-.472a.841.841 0 0 1-.011-.088 1.918 1.918 0 0 1 0-.229.86.86 0 0 1 .011-.096h.958v4.076c0 .207-.029.376-.088.509a.805.805 0 0 1-.56.475 1.46 1.46 0 0 1-.369.048c-.152 0-.277-.01-.376-.029a1.34 1.34 0 0 1-.25-.074c.01-.054.024-.122.044-.203a.997.997 0 0 1 .066-.195c.113.049.256.074.428.074.049 0 .109-.003.18-.008a.45.45 0 0 0 .369-.221.607.607 0 0 0 .07-.324v-3.715zm-.243-1.334a3.464 3.464 0 0 1-.011-.472 1.6 1.6 0 0 1 .011-.147 3.464 3.464 0 0 1 .471-.011c.059.002.109.006.148.011a1.6 1.6 0 0 1 .011.147c.002.059.004.108.004.148 0 .044-.002.098-.004.162a2.005 2.005 0 0 1-.011.162 1.625 1.625 0 0 1-.148.011c-.059.002-.108.004-.147.004-.044 0-.098-.002-.162-.004a2.005 2.005 0 0 1-.162-.011zm1.997.921a1.71 1.71 0 0 1 .125-.011l.118-.004.122.004c.052.003.092.007.122.011v2.116c0 .265.027.483.081.652a.896.896 0 0 0 .239.398.872.872 0 0 0 .387.199c.153.037.325.055.516.055.163 0 .307-.008.435-.026.128-.017.241-.04.339-.07v-3.324c.03-.004.071-.008.126-.011l.117-.004.122.004c.052.003.092.007.122.011v3.664l-.126.036c-.127.04-.24.099-.339.177a1.23 1.23 0 0 0-.398.557.853.853 0 0 0-.051.269.43.43 0 0 0 .118.313c.078.081.199.122.361.122.054 0 .113-.004.177-.012.064-.007.132-.023.206-.047a.87.87 0 0 1 .055.195c.012.071.021.136.026.195a1.302 1.302 0 0 1-.25.055 2.151 2.151 0 0 1-.295.019 1.23 1.23 0 0 1-.328-.044.917.917 0 0 1-.284-.133.636.636 0 0 1-.199-.228.707.707 0 0 1-.074-.332c0-.148.042-.312.126-.494.083-.182.203-.344.361-.486a3.527 3.527 0 0 1-.383.022 3.03 3.03 0 0 1-.653-.067 1.216 1.216 0 0 1-.531-.254 1.28 1.28 0 0 1-.357-.519c-.089-.222-.133-.509-.133-.863v-2.145zm-51.064 9.616a2.791 2.791 0 0 1 .56 0l1.187 3.251 1.209-3.251a2.15 2.15 0 0 1 .501 0l-1.496 3.759a1.264 1.264 0 0 1-.465 0l-1.496-3.759zm4.459 1.953c0 .502.116.87.347 1.106.231.236.577.353 1.039.353.187 0 .36-.015.52-.047a3.45 3.45 0 0 0 .468-.129.91.91 0 0 1 .059.199c.014.078.024.15.029.213a2.12 2.12 0 0 1-.501.148 3.598 3.598 0 0 1-.626.051c-.325 0-.604-.048-.837-.143a1.506 1.506 0 0 1-.575-.402 1.646 1.646 0 0 1-.332-.615 2.744 2.744 0 0 1-.107-.785c0-.275.033-.533.1-.774.066-.241.167-.453.302-.634.135-.182.308-.325.52-.428.211-.103.464-.154.759-.154.245 0 .464.041.656.125.192.084.353.2.483.35.13.15.228.329.294.538.067.209.1.436.1.682a3.908 3.908 0 0 1-.015.346h-2.683zm2.212-.405c0-.153-.02-.302-.059-.45a1.12 1.12 0 0 0-.185-.387.932.932 0 0 0-.324-.269 1.027 1.027 0 0 0-.479-.103c-.344 0-.612.106-.804.317-.191.211-.307.509-.346.892h2.197zm1.783-1.135h-.472a1.2 1.2 0 0 1-.011-.317c.003-.04.007-.071.011-.096h.959v3.759a2.141 2.141 0 0 1-.487 0v-3.346zm-.243-1.334a2.068 2.068 0 0 1-.011-.163c-.002-.064-.004-.117-.004-.162 0-.039.002-.088.004-.147a1.6 1.6 0 0 1 .011-.147 3.464 3.464 0 0 1 .472-.011c.059.002.108.005.147.011a2.906 2.906 0 0 1 .011.456 2.068 2.068 0 0 1-.011.163 2.057 2.057 0 0 1-.147.011 4.482 4.482 0 0 1-.31 0 2.602 2.602 0 0 1-.162-.011zm2.027-.737a2.111 2.111 0 0 1 .486 0v5.417a2.227 2.227 0 0 1-.364.011.972.972 0 0 1-.122-.011v-5.417zm.796 3.478l1.349-1.82c.078-.015.164-.022.258-.022.108 0 .211.007.309.022l-1.341 1.769 1.585 1.99a1.591 1.591 0 0 1-.266.022c-.108 0-.213-.007-.317-.022l-1.577-1.939zm2.801 1.423c.108.044.248.082.42.114s.337.048.494.048c.295 0 .528-.065.7-.195a.586.586 0 0 0 .258-.483.634.634 0 0 0-.077-.328.701.701 0 0 0-.207-.217 1.197 1.197 0 0 0-.291-.144l-.332-.114a4.969 4.969 0 0 1-.364-.133 1.238 1.238 0 0 1-.321-.188.887.887 0 0 1-.225-.276.878.878 0 0 1-.085-.406c0-.299.11-.543.328-.729.219-.187.557-.28 1.014-.28a2.971 2.971 0 0 1 .973.162 3.216 3.216 0 0 1-.103.42 3.646 3.646 0 0 0-.395-.103 2.308 2.308 0 0 0-.497-.052c-.3 0-.513.053-.638.159a.517.517 0 0 0-.188.416c0 .094.021.173.063.239a.559.559 0 0 0 .169.17c.072.047.153.087.244.122.091.034.187.066.291.095.133.044.266.093.402.144.135.051.258.119.368.203.111.083.201.189.273.317a.975.975 0 0 1 .107.479c0 .177-.036.337-.107.483a1.066 1.066 0 0 1-.299.368c-.128.101-.28.178-.457.232a1.987 1.987 0 0 1-.582.081c-.236 0-.446-.014-.63-.044a1.866 1.866 0 0 1-.446-.118c.029-.147.076-.294.14-.442zm3.435-3.243c.039-.005.077-.008.114-.011a1.308 1.308 0 0 1 .217 0c.035.003.072.006.111.011.01.088.017.194.022.317.005.123.007.233.007.332.044-.094.101-.185.17-.273a1.203 1.203 0 0 1 .973-.464c.142 0 .265.017.368.051a.845.845 0 0 1 .461.361c.052.084.1.177.144.28.054-.078.115-.159.184-.243.069-.084.147-.158.236-.225a1.122 1.122 0 0 1 .693-.224c.437 0 .753.125.947.375.194.251.291.61.291 1.077v2.395a2.111 2.111 0 0 1-.487 0v-2.226c0-.398-.065-.693-.195-.884-.13-.192-.325-.288-.586-.288a.854.854 0 0 0-.413.096.878.878 0 0 0-.294.258 1.21 1.21 0 0 0-.181.379 1.656 1.656 0 0 0-.063.461v2.204a2.141 2.141 0 0 1-.486 0v-2.322c0-.378-.06-.658-.181-.84a.584.584 0 0 0-.519-.273.809.809 0 0 0-.421.114 1.073 1.073 0 0 0-.331.321 1.656 1.656 0 0 0-.218.49 2.389 2.389 0 0 0-.077.623v1.887a2.111 2.111 0 0 1-.486 0v-3.759zm6.132 0a2.26 2.26 0 0 1 .365-.011c.051.003.092.006.121.011v2.115c0 .266.028.483.082.653a.896.896 0 0 0 .239.398.872.872 0 0 0 .387.199c.153.037.325.055.516.055.162 0 .307-.008.435-.026.128-.017.241-.04.339-.07v-3.324a2.26 2.26 0 0 1 .365-.011c.051.003.092.006.121.011v3.663l-.125.037c-.128.039-.24.098-.339.177a1.244 1.244 0 0 0-.398.556.858.858 0 0 0-.051.269c0 .128.039.232.118.314.078.081.198.121.361.121.054 0 .113-.004.177-.011a.992.992 0 0 0 .206-.048.864.864 0 0 1 .055.196c.012.071.021.136.026.195a1.296 1.296 0 0 1-.251.055 2.13 2.13 0 0 1-.294.018c-.114 0-.223-.014-.328-.044a.893.893 0 0 1-.284-.132.63.63 0 0 1-.199-.229.703.703 0 0 1-.074-.331c0-.148.042-.312.125-.494a1.5 1.5 0 0 1 .362-.487 3.296 3.296 0 0 1-1.036-.044 1.216 1.216 0 0 1-.531-.254 1.274 1.274 0 0 1-.357-.52c-.089-.221-.133-.508-.133-.862v-2.145zm6.11 0a1.63 1.63 0 0 1 .442 0l.045.516c.103-.157.252-.298.445-.42.195-.123.447-.184.756-.184.231 0 .442.035.634.106s.355.184.49.336c.135.152.241.344.317.575.076.231.114.508.114.833 0 .324-.044.615-.132.873a1.792 1.792 0 0 1-.387.656c-.17.179-.379.317-.627.413a2.368 2.368 0 0 1-.851.143 2.68 2.68 0 0 1-.384-.029 1.983 1.983 0 0 1-.375-.089v1.769a2.227 2.227 0 0 1-.365.011.991.991 0 0 1-.122-.011v-5.498zm.487 3.28c.113.044.229.077.35.099.12.023.281.033.483.033.191 0 .373-.03.545-.091.172-.062.322-.159.45-.292.127-.132.228-.301.302-.504a2.19 2.19 0 0 0 .11-.734c0-.452-.084-.806-.254-1.061-.169-.256-.444-.384-.822-.384-.118 0-.245.02-.383.059-.138.04-.264.107-.38.203a1.128 1.128 0 0 0-.287.376c-.076.155-.114.35-.114.586v1.71zm3.854-3.28c.04-.005.078-.008.115-.011a1.3 1.3 0 0 1 .217 0c.035.003.071.006.111.011.01.088.017.193.022.313.005.121.007.23.007.328.098-.182.236-.335.413-.46.177-.126.41-.188.7-.188h.078c.027 0 .057.002.092.007a1.216 1.216 0 0 1 0 .464.767.767 0 0 0-.092-.007h-.07c-.335 0-.602.106-.804.317-.201.211-.302.563-.302 1.054v1.931a2.111 2.111 0 0 1-.487 0v-3.759zm3.937 3.42c.392 0 .686-.138.88-.413.194-.275.291-.651.291-1.128 0-.476-.097-.852-.291-1.127-.194-.276-.488-.413-.88-.413-.394 0-.687.137-.881.413-.194.275-.292.651-.292 1.127 0 .477.098.853.292 1.128.194.275.487.413.881.413zm0 .427c-.281 0-.526-.05-.738-.151a1.458 1.458 0 0 1-.527-.416 1.797 1.797 0 0 1-.313-.626 2.803 2.803 0 0 1-.103-.775 2.8 2.8 0 0 1 .103-.774c.069-.24.173-.449.313-.626s.316-.316.527-.416c.212-.101.457-.151.738-.151.28 0 .524.05.733.151.209.1.383.239.523.416s.246.386.317.626c.071.241.107.499.107.774 0 .276-.036.534-.107.775-.071.24-.177.449-.317.626s-.314.316-.523.416a1.666 1.666 0 0 1-.733.151zM116.237 37.695c.433.01.741.1.925.269.184.17.277.394.277.675a.944.944 0 0 1-.148.519 1.282 1.282 0 0 1-.413.398 2.153 2.153 0 0 1-.63.258 3.247 3.247 0 0 1-.792.092c-.221 0-.424-.017-.608-.052a1.535 1.535 0 0 1-.479-.165.822.822 0 0 1-.314-.302.904.904 0 0 1-.11-.461c0-.186.054-.366.162-.538.108-.172.248-.3.42-.383a.829.829 0 0 1-.236-.225.568.568 0 0 1-.096-.335c0-.192.046-.352.137-.479.091-.128.212-.244.365-.347a1.206 1.206 0 0 1-.413-.435 1.296 1.296 0 0 1-.155-.649c0-.181.031-.352.092-.512.062-.159.154-.298.277-.416a1.36 1.36 0 0 1 .453-.281 1.75 1.75 0 0 1 .623-.102c.201 0 .381.025.538.077.157.051.295.119.413.203.049-.02.11-.042.184-.067a1.87 1.87 0 0 1 .243-.062c.089-.018.18-.033.273-.045.093-.012.184-.018.273-.018a.975.975 0 0 1 .029.243c0 .093-.01.177-.029.251h-.701a1.317 1.317 0 0 1 .214.729c0 .212-.037.398-.11.561a1.168 1.168 0 0 1-.306.409c-.131.11-.283.195-.457.254a1.754 1.754 0 0 1-.564.089c-.212 0-.396-.028-.553-.081a1.029 1.029 0 0 0-.291.254.467.467 0 0 0-.063.416.273.273 0 0 0 .092.122.534.534 0 0 0 .196.088c.083.022.191.033.324.033l.958.015zm-1.047.442c-.23-.005-.416.06-.556.196a.708.708 0 0 0-.21.534.51.51 0 0 0 .081.295c.054.079.129.14.225.184.096.044.208.075.335.092.128.018.263.026.406.026.457 0 .813-.077 1.068-.232.256-.155.384-.34.384-.557 0-.186-.064-.319-.192-.398-.128-.078-.337-.12-.626-.125l-.915-.015zm-.545-2.602c0 .256.075.471.225.645.15.175.385.262.704.262.319 0 .555-.087.708-.262a.945.945 0 0 0 .228-.645.945.945 0 0 0-.228-.644c-.153-.175-.389-.262-.708-.262-.319 0-.554.087-.704.262a.952.952 0 0 0-.225.644zm3.604-1.223c.04-.005.078-.008.115-.011a1.284 1.284 0 0 1 .217 0c.035.003.071.006.111.011.009.088.017.193.022.313.005.121.007.23.007.328.098-.182.236-.335.413-.46.177-.126.41-.188.7-.188h.078c.026 0 .057.002.092.007a1.216 1.216 0 0 1 0 .464.767.767 0 0 0-.092-.007h-.07c-.335 0-.603.106-.804.317-.201.211-.302.563-.302 1.054v1.931a2.111 2.111 0 0 1-.487 0v-3.759zm4.578 1.931c-.084-.01-.188-.021-.314-.033a3.755 3.755 0 0 0-.357-.019c-.369 0-.654.069-.855.207a.672.672 0 0 0-.302.59c0 .162.03.292.092.39a.621.621 0 0 0 .239.225c.099.051.207.086.325.103.117.018.235.026.354.026a4.072 4.072 0 0 0 .818-.081v-1.408zm0-.656c0-.324-.077-.561-.229-.711-.152-.15-.378-.225-.678-.225a3.276 3.276 0 0 0-.973.14.74.74 0 0 1-.063-.192 1.176 1.176 0 0 1-.025-.235c.127-.04.285-.073.471-.1.187-.027.379-.04.575-.04.477 0 .831.104 1.062.313.231.209.346.537.346.984v2.484a11.24 11.24 0 0 1-.626.103 5.118 5.118 0 0 1-.7.051c-.458 0-.817-.09-1.08-.272-.263-.182-.395-.477-.395-.885 0-.196.038-.372.114-.527.077-.154.182-.285.317-.391a1.43 1.43 0 0 1 .487-.239c.189-.054.397-.081.623-.081.177 0 .329.006.457.018l.317.033v-.228zm1.71-1.275c.039-.005.077-.008.114-.011a1.308 1.308 0 0 1 .217 0c.035.003.072.006.111.011.01.088.017.194.022.317.005.123.007.233.007.332.044-.094.101-.185.17-.273a1.188 1.188 0 0 1 .973-.464c.142 0 .265.017.368.051a.845.845 0 0 1 .461.361c.052.084.1.177.144.28.054-.078.115-.159.184-.243.069-.084.147-.158.236-.225a1.122 1.122 0 0 1 .693-.224c.437 0 .753.125.947.375.194.251.291.61.291 1.077v2.395a2.111 2.111 0 0 1-.487 0v-2.226c0-.398-.065-.693-.195-.884-.13-.192-.325-.288-.586-.288a.854.854 0 0 0-.413.096.869.869 0 0 0-.294.258 1.21 1.21 0 0 0-.181.379 1.656 1.656 0 0 0-.063.461v2.204a2.141 2.141 0 0 1-.486 0v-2.322c0-.378-.06-.658-.181-.84a.584.584 0 0 0-.519-.273.809.809 0 0 0-.421.114 1.073 1.073 0 0 0-.331.321 1.656 1.656 0 0 0-.218.49 2.389 2.389 0 0 0-.077.623v1.887a2.111 2.111 0 0 1-.486 0v-3.759zm8.233 1.931c-.084-.01-.188-.021-.313-.033a3.792 3.792 0 0 0-.358-.019c-.369 0-.654.069-.855.207a.672.672 0 0 0-.302.59.73.73 0 0 0 .092.39.621.621 0 0 0 .239.225c.099.051.207.086.325.103.118.018.235.026.354.026a4.072 4.072 0 0 0 .818-.081v-1.408zm0-.656c0-.324-.077-.561-.229-.711-.152-.15-.378-.225-.678-.225a3.276 3.276 0 0 0-.973.14.74.74 0 0 1-.063-.192 1.176 1.176 0 0 1-.025-.235c.128-.04.285-.073.471-.1.187-.027.379-.04.575-.04.477 0 .831.104 1.062.313.231.209.346.537.346.984v2.484a11.24 11.24 0 0 1-.626.103 5.118 5.118 0 0 1-.7.051c-.458 0-.817-.09-1.08-.272-.263-.182-.395-.477-.395-.885a1.133 1.133 0 0 1 .431-.918 1.43 1.43 0 0 1 .487-.239c.189-.054.397-.081.623-.081.177 0 .329.006.457.018l.317.033v-.228zM8.159 2.255h11.834L22.059.191h15.389l10.001 10h-4.825l-6.589-6.589H23.471l-2.065 2.064H9.572l-5.348 5.349v4.139l5.97 5.971h5.671v5.67l3.412 3.412v3.501l5.591 5.591h9.388l4.328-4.328v-3.063h3.412v4.476L35.67 42.71H23.454l-7.589-7.589V31.62l-3.412-3.412v-3.672H8.781L.812 16.567V9.602l7.347-7.347" fill="#BAB0AA"/><path d="M55.399 31.908v7.779l-13.403-4.119v-3.66h13.403zm-16.815 2.611l-8.498-2.611h8.498v2.611z" fill="#736762"/><path d="M34.256 39.299l-3.411 3.411 1.991-3.411h1.42zm1.779-35.697h4.825l-3.82 1.005-1.005-1.005zM10.194 21.125H5.37l3.82-1.005 1.004 1.005zm-5.97-10.11V6.191l1.004 3.82-1.004 1.004zm11.641 20.606v-4.825l-1.004 3.82 1.004 1.005zm7.606-28.019L26.883.191l-1.991 3.411h-1.421zM9.572 5.666l3.412-3.411-1.991 3.411H9.572zm-5.348 9.488L.812 11.743l3.412 1.991v1.42z" fill="#988C85"/><path d="M45.679 14.923l.688-.501.686.501-.263-.811.699-.501h-.86l-.262-.822-.265.823-.861-.001.7.501-.262.811zm-3.558.957l.688-.503.688.503-.264-.812.7-.502h-.861l-.263-.822-.263.822h-.862l.699.502-.262.812zm-1.914.472l-.264.823-.86-.001.696.502-.26.811.688-.501.687.501-.262-.811.698-.502h-.86l-.263-.822zm-.955 5.185l.686.504-.26-.813.697-.501h-.86l-.263-.822-.263.824-.86-.002.698.501-.263.813.688-.504zm1.218 2.754l-.263-.823-.264.824-.86-.001.696.501-.26.812.688-.504.687.504-.262-.812.698-.501h-.86zm2.606 2.608l-.263-.821-.263.821h-.86l.697.5-.26.811.687-.503.688.503-.261-.811.697-.5h-.862zm3.554.945l-.263-.825-.264.825h-.859l.697.501-.262.81.688-.502.686.502-.261-.81.697-.501h-.859zm3.552-.945l-.263-.821-.264.821h-.86l.696.5-.26.811.688-.503.687.503-.262-.811.698-.5h-.86zm2.608-2.608l-.265-.823-.263.824-.859-.001.7.501-.264.812.686-.504.689.504-.263-.812.7-.501h-.861zm1.805-3.574h-.861l-.264-.822-.262.822h-.861l.699.501-.261.813.685-.504.689.504-.261-.813.697-.501zm-2.756-2.24l.686-.501.689.501-.263-.812.7-.5h-.861l-.265-.822-.263.822h-.859l.7.5-.264.812zm-1.91-4.731l-.264.822-.86-.002.697.502-.262.812.689-.503.688.503-.262-.812.699-.502h-.864l-.261-.82z" fill="#FFF101"/><path d="M30.085 31.908h32.574V10.191H30.085v21.717zm15.594-16.984l.688-.502.686.502-.262-.812.698-.501h-.86l-.262-.822-.265.823-.861-.001.7.501-.262.812zm-3.558.956l.688-.503.688.503-.264-.812.7-.502h-.861l-.263-.822-.263.822h-.862l.699.502-.262.812zm-1.914.472l-.264.823-.86-.001.696.502-.26.811.688-.501.687.501-.262-.811.698-.502h-.86l-.263-.822zm-.955 5.185l.686.504-.26-.813.697-.501h-.86l-.263-.822-.263.824-.86-.002.698.501-.263.813.688-.504zm1.218 2.754l-.263-.823-.264.824-.86-.001.696.501-.26.811.688-.503.687.503-.262-.811.698-.501h-.86zm2.606 2.608l-.263-.821-.263.821h-.86l.697.5-.26.811.687-.503.688.503-.261-.811.697-.5h-.862zm3.554.944l-.263-.824-.264.824h-.859l.697.502-.262.81.688-.502.686.502-.261-.81.697-.502h-.859zm3.552-.944l-.263-.821-.264.821h-.86l.696.5-.26.811.688-.503.687.503-.262-.811.698-.5h-.86zm2.608-2.608l-.265-.823-.263.824-.859-.001.7.501-.264.811.686-.503.689.503-.263-.811.7-.501h-.861zm1.805-3.574h-.861l-.264-.822-.262.822h-.861l.699.501-.261.813.685-.504.689.504-.261-.813.697-.501zm-2.756-2.24l.686-.501.689.501-.263-.812.7-.5h-.861l-.265-.822-.263.822h-.859l.7.5-.264.812zm-1.91-4.731l-.264.822-.86-.002.697.502-.262.812.689-.503.688.503-.262-.812.699-.502h-.864l-.261-.82z" fill="#174489"/></g></svg>